<svg xmlns="http://www.w3.org/2000/svg" xmlns:xlink="http://www.w3.org/1999/xlink" version="1.1" x="0px" y="0px" viewBox="0 0 250 312.5" enable-background="new 0 0 250 250" xml:space="preserve"><path d="M168.003,101.471l-36.313-36.316c0.563-0.799,0.896-1.776,0.896-2.831v-6.151c0-2.716-2.203-4.92-4.921-4.92h-5.33  c-2.719,0-4.921,2.203-4.921,4.92v6.151c0,1.055,0.333,2.032,0.896,2.831l-36.313,36.316H49.96v109.892h150.08V101.471H168.003z   M121.036,67.071c0.414,0.115,0.85,0.176,1.299,0.176h5.33c0.45,0,0.885-0.061,1.299-0.176l34.399,34.401H86.636L121.036,67.071z   M182.612,193.835H67.388V119h115.225V193.835z"/><text x="0" y="265" fill="#000000" font-size="5px" font-weight="bold" font-family="'Helvetica Neue', Helvetica, Arial-Unicode, Arial, Sans-serif">Created by Alex Auda Samora</text><text x="0" y="270" fill="#000000" font-size="5px" font-weight="bold" font-family="'Helvetica Neue', Helvetica, Arial-Unicode, Arial, Sans-serif">from the Noun Project</text></svg>