<svg xmlns="http://www.w3.org/2000/svg" xmlns:xlink="http://www.w3.org/1999/xlink" version="1.1" x="0px" y="0px" viewBox="0 0 100 125" enable-background="new 0 0 100 100" xml:space="preserve"><path d="M41.667,10.417v4.167c0,4.167,0,4.167,4.167,4.167h50c4.167,0,4.167,0,4.167-4.167v-4.167c0-4.167,0-4.167-4.167-4.167h-50  C41.667,6.25,41.667,6.25,41.667,10.417z M8.333,35.417v4.167c0,4.167,0,4.167,4.167,4.167h83.333c4.167,0,4.167,0,4.167-4.167  v-4.167c0-4.167,0-4.167-4.167-4.167H12.5C8.333,31.25,8.333,31.25,8.333,35.417z M25,60.417v4.167c0,4.167,0,4.167,4.167,4.167  h66.667c4.167,0,4.167,0,4.167-4.167v-4.167c0-4.167,0-4.167-4.167-4.167H29.167C25,56.25,25,56.25,25,60.417z M0,85.417l0,4.167  c0,4.167,0,4.167,4.167,4.167h91.667c4.167,0,4.167,0,4.167-4.167v-4.167c0-4.167,0-4.167-4.167-4.167H4.167  C0,81.25,0,81.25,0,85.417z"/><text x="0" y="115" fill="#000000" font-size="5px" font-weight="bold" font-family="'Helvetica Neue', Helvetica, Arial-Unicode, Arial, Sans-serif">Created by Thomas Helbig</text><text x="0" y="120" fill="#000000" font-size="5px" font-weight="bold" font-family="'Helvetica Neue', Helvetica, Arial-Unicode, Arial, Sans-serif">from the Noun Project</text></svg>