<?xml version="1.0" encoding="utf-8"?>
<!-- Generator: Adobe Illustrator 17.1.0, SVG Export Plug-In . SVG Version: 6.00 Build 0)  -->
<!DOCTYPE svg PUBLIC "-//W3C//DTD SVG 1.1//EN" "http://www.w3.org/Graphics/SVG/1.1/DTD/svg11.dtd">
<svg version="1.1" id="Layer_1" xmlns="http://www.w3.org/2000/svg" xmlns:xlink="http://www.w3.org/1999/xlink" x="0px" y="0px"
	 viewBox="403.4 285.3 35 24.7" enable-background="new 403.4 285.3 35 24.7" xml:space="preserve">
<g>
	<polygon points="413,289.6 409.8,289.6 409.8,290 410.2,290 410.2,290.5 412.5,290.5 412.5,290 413,290 	"/>
	<polygon points="432.2,289.6 429,289.6 429,290 429.5,290 429.5,290.5 431.8,290.5 431.8,290 432.2,290 	"/>
	<path d="M432.9,290.6h-6.8l-1.2-2.4h-8l-1.2,2.4h-6.8c-0.6,0-1.1,0.4-1.1,1v2.9h9.1c1-1,2.4-1.6,4-1.6c1.5,0,2.9,0.6,4,1.6h9.1
		v-2.9C434,291,433.5,290.6,432.9,290.6z M422.5,290.1h-3.1v-1.6h3.1V290.1z"/>
	<path d="M425.3,295c0.9,0.8,1.5,2.3,1.5,3.8c0,3.2-2.6,5.8-5.8,5.8c-3.2,0-5.8-2.6-5.8-5.8c0-1.5,0.6-3,1.5-3.8h-8.7V306
		c0,0.6,0.5,1.1,1.1,1.1h24c0.6,0,1.1-0.5,1.1-1.1V295H425.3z"/>
	<circle cx="420.9" cy="298.8" r="3.5"/>
</g>
</svg>
