<?xml version="1.0" encoding="utf-8"?>
<!-- Generator: Adobe Illustrator 17.1.0, SVG Export Plug-In . SVG Version: 6.00 Build 0)  -->
<!DOCTYPE svg PUBLIC "-//W3C//DTD SVG 1.1//EN" "http://www.w3.org/Graphics/SVG/1.1/DTD/svg11.dtd">
<svg version="1.1" id="Layer_1" xmlns="http://www.w3.org/2000/svg" xmlns:xlink="http://www.w3.org/1999/xlink" x="0px" y="0px"
	 viewBox="0 0 841.9 595.3" enable-background="new 0 0 841.9 595.3" xml:space="preserve">
<path d="M560.3,158.3L444.3,42.3c2.2-2.2,2.2-6.6,2.2-9V15.6C446.5,6.6,440,0,431,0h-17.8c-9,0-15.6,6.6-15.6,15.6v20
	c0,2.2,0,6.6,2.2,9l-116,116H183.4v345.7h475.1v-348H560.3z M411,48.9c2.2,0,2.2,0,4.4,0h17.8c2.2,0,2.2,0,4.4,0l109.4,109.4H303.8
	L411,48.9z M607.2,450.5H241.4V214.1h365.9L607.2,450.5L607.2,450.5z"/>
</svg>
